<svg width="18" height="18" viewBox="0 0 18 18" fill="none" xmlns="http://www.w3.org/2000/svg">
<path d="M9 10.687C8.6895 10.687 8.4375 10.435 8.4375 10.1245C8.4375 9.81401 8.6895 9.56201 9 9.56201H10.125C10.4355 9.56201 10.6875 9.31001 10.6875 8.99951C10.6875 8.68901 10.4355 8.43701 10.125 8.43701H9.5625V7.87451C9.5625 7.56401 9.3105 7.31201 9 7.31201C8.6895 7.31201 8.4375 7.56401 8.4375 7.87451V8.54051C7.78388 8.77339 7.3125 9.39214 7.3125 10.1245C7.3125 11.0549 8.06962 11.812 9 11.812C9.3105 11.812 9.5625 12.0651 9.5625 12.3745C9.5625 12.6839 9.3105 12.937 9 12.937H7.875C7.5645 12.937 7.3125 13.189 7.3125 13.4995C7.3125 13.81 7.5645 14.062 7.875 14.062H8.4375V14.6245C8.4375 14.935 8.6895 15.187 9 15.187C9.3105 15.187 9.5625 14.935 9.5625 14.6245V13.9585C10.2161 13.7256 10.6875 13.1069 10.6875 12.3745C10.6875 11.4441 9.93038 10.687 9 10.687Z" fill="white"/>
<path d="M17.4375 6.74993C17.748 6.74993 18 6.49793 18 6.18743V5.06243C18 4.8543 17.8853 4.66418 17.7019 4.5663L9.26437 0.0663008C9.099 -0.0214492 8.901 -0.0214492 8.7345 0.0663008L0.297 4.5663C0.11475 4.66418 0 4.8543 0 5.06243V6.18743C0 6.49793 0.252 6.74993 0.5625 6.74993H2.25V15.7499H1.125C0.505125 15.7499 0 16.2539 0 16.8749V17.4374C0 17.7479 0.252 17.9999 0.5625 17.9999H17.4375C17.748 17.9999 18 17.7479 18 17.4374V16.8749C18 16.2539 17.496 15.7499 16.875 15.7499H15.75V6.74993H17.4375ZM9 2.24993C9.621 2.24993 10.125 2.75393 10.125 3.37493C10.125 3.99593 9.621 4.49993 9 4.49993C8.379 4.49993 7.875 3.99593 7.875 3.37493C7.875 2.75393 8.379 2.24993 9 2.24993ZM13.5 15.7499H4.5V6.74993H13.5V15.7499Z" fill="white"/>
</svg>
