<svg width="88" height="88" viewBox="0 0 88 88" fill="none" xmlns="http://www.w3.org/2000/svg">
<path d="M44 0C19.8172 0 0 19.8172 0 44C0 68.1828 19.8172 88 44 88C68.1828 88 88 68.1828 88 44C88 19.8172 68.1828 0 44 0Z" fill="#77DD00"/>
<path d="M88 44C88 68.1828 68.1828 88 44 88V0C68.1828 0 88 19.8172 88 44Z" fill="#66BB00"/>
<path d="M69.0591 36.5234L38.8435 66.7389L17.1355 45.0826L24.4577 37.7608L38.8435 52.1983L43.9997 47.042L61.7888 29.2531L69.0591 36.5234Z" fill="white"/>
<path d="M69.0594 36.5234L44 61.5826V47.042L61.7891 29.2531L69.0594 36.5234Z" fill="#F4F4F5"/>
</svg>
