<svg width="19" height="19" viewBox="0 0 19 19" fill="none" xmlns="http://www.w3.org/2000/svg">
<path d="M9.83606 12.7822C9.83606 13.1737 9.51865 13.4913 9.12701 13.4913C8.73538 13.4913 8.41797 13.1737 8.41797 12.7822C8.41797 12.3904 8.73538 12.0728 9.12701 12.0728C9.51865 12.0728 9.83606 12.3904 9.83606 12.7822Z" fill="white"/>
<path d="M9.95847 10.4666C9.95847 10.2717 10.069 10.0986 10.24 10.0256C11.254 9.59239 11.9089 8.60035 11.9084 7.4978C11.9084 7.48681 11.9082 7.47602 11.9078 7.46524C11.8902 5.966 10.6654 4.75146 9.16239 4.75146C7.64839 4.75146 6.41675 5.98362 6.41675 7.49801C6.41675 7.93762 6.77312 8.29428 7.21283 8.29428C7.65254 8.29428 8.00891 7.93762 8.00891 7.49801C8.00891 6.8616 8.52636 6.34402 9.16239 6.34402C9.79842 6.34402 10.3159 6.86181 10.3159 7.49801C10.3159 7.50506 10.3159 7.51211 10.3161 7.51936C10.308 7.97432 10.0346 8.38138 9.61475 8.56075C8.8564 8.88465 8.36631 9.63282 8.36631 10.4666V10.5123C8.36631 10.9521 8.72268 11.3085 9.16239 11.3085C9.60189 11.3085 9.95847 10.9521 9.95847 10.5123V10.4666Z" fill="white"/>
<path d="M16.111 6.59565H15.754C15.6954 6.59565 15.6419 6.55749 15.6174 6.49839L15.612 6.48554C15.5876 6.42623 15.5983 6.36112 15.6398 6.31965L15.8923 6.06708C16.7556 5.20361 16.7556 3.79851 15.8923 2.93504L15.3908 2.43342C14.5276 1.56996 13.1228 1.56996 12.2596 2.43342L12.0071 2.68599C11.9658 2.72747 11.9007 2.73846 11.8412 2.71378L11.8282 2.70818C11.7693 2.68392 11.7314 2.63042 11.7314 2.57194V2.21465C11.7314 0.993484 10.7379 0 9.51706 0H8.80805C7.58719 0 6.59396 0.993484 6.59396 2.21465V2.57194C6.59396 2.63042 6.55603 2.68392 6.49694 2.70839L6.48886 2.71171L6.79526 3.44661L6.48409 2.71378C6.42459 2.73846 6.35949 2.72747 6.31824 2.6862L6.06573 2.43363C5.20249 1.56996 3.79774 1.56996 2.9345 2.43363L2.43301 2.93504C1.56976 3.79851 1.56976 5.20361 2.43301 6.06708L2.68552 6.31965C2.72698 6.36112 2.73776 6.42623 2.71267 6.48678L2.7077 6.4986C2.68344 6.55749 2.62996 6.59565 2.57129 6.59565H2.21409C0.99323 6.59565 0 7.58913 0 8.8103V9.51949C0 10.7407 0.99323 11.7344 2.21409 11.7344H2.57129C2.62996 11.7344 2.68344 11.7723 2.70791 11.8314L2.7133 11.8445C2.73776 11.9038 2.72698 11.9689 2.68552 12.0104L2.43301 12.2629C1.56976 13.1264 1.56976 14.5315 2.43301 15.395L2.9345 15.8964C3.79774 16.7598 5.20228 16.7598 6.06573 15.8964L6.31803 15.6438C6.35949 15.6025 6.42459 15.5915 6.48098 15.615L6.49715 15.6216C6.55603 15.6461 6.59396 15.6996 6.59396 15.7581V16.1153C6.59396 17.3365 7.5874 18.33 8.80826 18.33H9.51727C10.7381 18.33 11.7314 17.3365 11.7314 16.1153V15.7581C11.7314 15.6996 11.7693 15.6461 11.8284 15.6216L11.8414 15.6162C11.9007 15.5915 11.9658 15.6025 12.0073 15.644L12.2598 15.8964C13.123 16.76 14.5278 16.76 15.391 15.8964C15.7018 15.5855 15.7018 15.0812 15.391 14.7704C15.0801 14.4593 14.5761 14.4593 14.2651 14.7704C14.0226 15.0128 13.628 15.0128 13.3855 14.7704L13.133 14.5178C12.6342 14.0189 11.8875 13.8727 11.2278 14.1468L11.2205 14.1497C10.5636 14.4212 10.1392 15.0524 10.1392 15.7583V16.1153C10.1392 16.4585 9.86016 16.7376 9.51727 16.7376H8.80826C8.46516 16.7376 8.18612 16.4585 8.18612 16.1153V15.7583C8.18612 15.0524 7.76175 14.4212 7.10499 14.1499L7.09462 14.1456C6.43806 13.8727 5.69133 14.0189 5.19233 14.5178L4.93982 14.7704C4.69727 15.013 4.30275 15.013 4.0602 14.7704L3.55892 14.269C3.31637 14.0264 3.31637 13.6317 3.55892 13.3891L3.81143 13.1366C4.31022 12.6374 4.45637 11.8907 4.18396 11.235L4.1794 11.2236C3.90803 10.5665 3.27698 10.142 2.57129 10.142H2.21409C1.8712 10.142 1.59215 9.86289 1.59215 9.5197V8.81051C1.59215 8.46753 1.8712 8.18842 2.21409 8.18842H2.57129C3.27677 8.18842 3.90803 7.76373 4.1792 7.10701L4.18355 7.09664C4.45637 6.43971 4.31022 5.69278 3.81143 5.19366L3.55871 4.94129C3.31637 4.69868 3.31637 4.30406 3.55871 4.06144L4.0602 3.55983C4.30275 3.31742 4.69727 3.31742 4.93982 3.55983L5.19233 3.81261C5.69112 4.31153 6.43786 4.45751 7.09338 4.18524L7.10478 4.18047C7.76175 3.90924 8.18612 3.27781 8.18612 2.57215V2.21486C8.18612 1.87188 8.46516 1.59277 8.80805 1.59277H9.51706C9.86016 1.59277 10.1392 1.87188 10.1392 2.21486V2.57215C10.1392 3.27781 10.5636 3.90924 11.2241 4.18192L11.2307 4.18483C11.8873 4.45751 12.634 4.31153 13.133 3.81261L13.3855 3.55983C13.628 3.31742 14.0226 3.31742 14.2651 3.55983L14.7664 4.06144C15.009 4.30406 15.009 4.69868 14.7664 4.94129L14.5139 5.19386C14.0151 5.69278 13.8689 6.43971 14.1414 7.0954L14.1459 7.1068C14.4173 7.76394 15.0485 8.18842 15.754 8.18842H16.111C16.4541 8.18842 16.7332 8.46753 16.7332 8.81051V9.5197C16.7332 9.86289 16.4541 10.142 16.111 10.142H15.754C15.0483 10.142 14.4173 10.5665 14.1461 11.2234L14.1418 11.2338C13.8689 11.8907 14.0151 12.6374 14.5139 13.1366C14.8249 13.4476 15.3288 13.4476 15.6398 13.1366C15.9506 12.8257 15.9508 12.3214 15.6398 12.0106C15.5983 11.9691 15.5876 11.904 15.6126 11.8432L15.6176 11.8314C15.6419 11.7725 15.6956 11.7344 15.754 11.7344H16.111C17.3319 11.7344 18.3253 10.7409 18.3253 9.5197V8.81051C18.3251 7.58913 17.3319 6.59565 16.111 6.59565Z" fill="white"/>
</svg>
